<?xml version="1.0" standalone="no"?>
<!DOCTYPE svg PUBLIC "-//W3C//DTD SVG 20010904//EN"
 "http://www.w3.org/TR/2001/REC-SVG-20010904/DTD/svg10.dtd">
<svg version="1.0" xmlns="http://www.w3.org/2000/svg"
 width="300.000000pt" height="300.000000pt" viewBox="0 0 300.000000 300.000000"
 preserveAspectRatio="xMidYMid meet">
<metadata>
Created by potrace 1.10, written by Peter Selinger 2001-2011
</metadata>
<g transform="translate(0.000000,300.000000) scale(0.100000,-0.100000)"
fill="#000000" stroke="none">
<path d="M10 1500 c0 -993 3 -1500 10 -1500 10 0 11 6 10 1140 0 1758 0 1860
-10 1860 -7 0 -10 -507 -10 -1500z"/>
<path d="M2985 1500 c0 -828 1 -1166 2 -752 2 413 2 1091 0 1505 -1 413 -2 75
-2 -753z"/>
<path d="M164 2850 c-12 -5 -25 -13 -28 -18 -9 -14 -10 -2623 -2 -2650 l7 -22
1357 2 1357 3 5 250 5 250 5 -245 5 -245 3 260 c1 171 -2 255 -8 245 -6 -10
-9 28 -8 115 1 116 2 122 8 55 4 -49 7 5 9 160 3 427 1 1213 -4 1218 -2 3 -5
-240 -5 -538 0 -299 -2 -546 -5 -548 -3 -3 -4 278 -3 624 1 346 5 593 8 549 5
-61 7 -35 8 105 1 122 -2 180 -8 170 -7 -10 -10 30 -10 121 l0 137 -32 6 c-52
9 -2641 5 -2664 -4z m2686 -1350 l0 -1330 -1345 0 -1345 0 0 1330 0 1330 1345
0 1345 0 0 -1330z m17 973 c-2 -21 -4 -6 -4 32 0 39 2 55 4 38 2 -18 2 -50 0
-70z m0 -65 c-3 -8 -6 -5 -6 6 -1 11 2 17 5 13 3 -3 4 -12 1 -19z m0 -1340
c-2 -13 -4 -3 -4 22 0 25 2 35 4 23 2 -13 2 -33 0 -45z m0 -110 c-2 -18 -4 -6
-4 27 0 33 2 48 4 33 2 -15 2 -42 0 -60z"/>
<path d="M2199 2546 c-6 -6 -218 -45 -328 -60 l-84 -11 -48 -130 c-50 -132
-219 -638 -238 -709 -6 -22 -7 -35 -2 -30 10 11 52 126 91 249 16 50 36 108
44 130 8 22 15 46 16 53 0 7 8 31 18 55 11 23 27 69 37 102 11 33 22 67 26 75
12 27 33 75 34 80 5 23 29 87 34 93 4 4 18 10 32 12 13 2 44 9 69 15 25 6 70
12 100 15 30 3 66 7 80 10 105 20 107 20 113 -14 4 -18 -6 -136 -22 -264 -50
-399 -91 -825 -121 -1277 -11 -161 -20 -263 -25 -268 -1 -2 -80 -19 -175 -38
-128 -26 -175 -32 -184 -24 -14 14 -11 196 5 312 6 45 12 104 13 131 0 26 3
47 6 47 3 0 6 44 8 97 2 54 1 95 -2 92 -13 -13 -66 -543 -66 -662 0 -34 2 -38
20 -32 18 6 20 2 20 -35 0 -36 3 -41 18 -35 9 4 37 10 62 15 25 4 107 20 183
35 l137 27 1 67 c0 36 2 73 3 81 2 8 6 58 10 110 27 395 119 1313 145 1455 6
28 12 75 16 106 l6 56 -26 -5 c-25 -4 -25 -3 -19 37 6 38 4 48 -7 37z m-159
-1906 c0 -13 -179 -54 -190 -44 -9 10 26 24 60 24 19 1 51 7 70 13 40 15 60
17 60 7z m-290 -54 c0 -3 -4 -8 -10 -11 -5 -3 -10 -1 -10 4 0 6 5 11 10 11 6
0 10 -2 10 -4z m37 -2 c-3 -3 -12 -4 -19 -1 -8 3 -5 6 6 6 11 1 17 -2 13 -5z"/>
<path d="M1440 2460 c-36 -4 -96 -13 -135 -19 -38 -6 -109 -11 -157 -11 l-86
0 -22 -87 c-12 -49 -26 -108 -32 -133 -32 -140 -401 -1492 -438 -1604 -10 -28
-9 -28 20 -22 33 6 39 -8 19 -46 -6 -11 -9 -21 -7 -24 2 -2 56 1 119 6 63 5
146 12 184 16 39 3 73 9 76 12 9 10 176 700 199 820 24 125 26 192 6 192 -8 0
-17 -14 -21 -32 -34 -175 -215 -900 -227 -915 -6 -8 -37 -13 -77 -14 -36 0
-102 -4 -145 -8 -72 -6 -82 -5 -102 14 l-23 20 29 90 c29 93 48 157 102 360
18 66 36 122 40 123 5 2 5 8 2 13 -3 6 1 31 9 57 9 26 21 67 28 92 7 25 16 49
21 55 4 5 8 19 8 32 0 12 14 73 31 135 63 232 69 254 74 276 3 13 13 44 21 69
9 25 18 60 20 77 2 17 10 53 18 81 8 27 29 109 47 182 l31 131 87 7 c47 3 129
12 181 20 154 23 172 23 178 0 10 -38 6 -130 -10 -250 -55 -406 -89 -688 -83
-693 12 -12 34 29 45 82 11 54 35 228 75 551 40 319 38 285 9 285 -23 0 -24 3
-18 35 7 39 15 37 -96 25z m-489 -1883 c-10 -9 -11 -8 -5 6 3 10 9 15 12 12 3
-3 0 -11 -7 -18z m-173 -14 c-21 -2 -57 -2 -80 0 -24 2 -7 4 37 4 44 0 63 -2
43 -4z"/>
<path d="M1689 1518 c-13 -50 -187 -599 -222 -703 -13 -38 -32 -102 -42 -142
l-18 -72 -71 -5 c-39 -4 -91 -7 -116 -9 -44 -2 -45 -2 -48 -40 -3 -33 -1 -38
15 -34 10 3 71 9 136 12 75 5 120 11 122 19 17 63 70 232 132 426 103 321 112
354 123 440 5 41 12 92 16 113 9 52 -12 48 -27 -5z m-326 -955 c-23 -2 -64 -2
-90 0 -26 2 -7 3 42 3 50 0 71 -1 48 -3z"/>
<path d="M1196 1355 c-3 -13 -11 -82 -16 -152 -5 -70 -12 -148 -15 -173 -9
-80 -35 -444 -31 -447 2 -2 11 -1 20 3 18 7 22 34 5 34 -7 0 -9 12 -6 33 4 17
9 82 12 142 4 61 9 119 12 130 4 11 7 52 8 90 4 118 15 288 21 328 6 41 0 50
-10 12z"/>
<path d="M2873 735 c0 -22 2 -30 4 -17 2 12 2 30 0 40 -3 9 -5 -1 -4 -23z"/>
<path d="M623 143 c185 -2 489 -2 675 0 185 1 33 2 -338 2 -371 0 -523 -1
-337 -2z"/>
<path d="M2103 143 c103 -2 271 -2 375 0 103 1 18 2 -188 2 -206 0 -291 -1
-187 -2z"/>
</g>
</svg>
